<?xml version="1.0" standalone="no"?>
<!DOCTYPE svg PUBLIC "-//W3C//DTD SVG 20010904//EN"
 "http://www.w3.org/TR/2001/REC-SVG-20010904/DTD/svg10.dtd">
<svg version="1.0" xmlns="http://www.w3.org/2000/svg"
 width="228.000000pt" height="228.000000pt" viewBox="0 0 228.000000 228.000000"
 preserveAspectRatio="xMidYMid meet">
<metadata>
Created by potrace 1.14, written by Peter Selinger 2001-2017
</metadata>
<g transform="translate(0.000000,228.000000) scale(0.100000,-0.100000)"
fill="#000000" stroke="none">
<path d="M1077 1623 c-1 -1 -67 -3 -146 -6 l-144 -5 -164 -163 c-90 -90 -168
-171 -173 -180 -7 -13 -2 -16 32 -17 23 -1 44 -4 46 -7 10 -10 8 -61 -3 -85
-7 -14 -9 -34 -5 -44 3 -11 4 -37 0 -57 -7 -39 2 -71 14 -50 5 7 13 8 25 1 17
-9 18 -4 18 70 0 44 -3 80 -7 80 -4 0 -8 26 -8 58 -1 43 1 53 9 40 6 -12 22
-18 43 -18 31 0 35 -4 56 -55 12 -30 25 -55 29 -54 3 0 22 22 42 48 43 56 135
120 217 152 42 16 81 22 149 23 102 1 104 4 66 65 -14 21 -19 23 -71 16 -31
-4 -86 -18 -121 -31 -36 -12 -67 -22 -69 -20 -8 9 145 77 199 88 57 12 64 16
108 73 72 92 75 85 -39 82 -56 -1 -102 -3 -103 -4z"/>
<path d="M1012 1304 c-204 -53 -346 -233 -343 -436 3 -212 146 -392 347 -438
27 -7 116 -13 197 -15 160 -3 154 -5 133 45 -4 10 3 21 23 33 36 21 106 94
133 137 155 255 23 592 -262 670 -63 18 -168 19 -228 4z"/>
<path d="M1459 1212 c68 -69 103 -127 128 -215 24 -84 22 -206 -4 -267 -3 -8
-7 -18 -7 -22 -1 -3 -4 -10 -8 -14 -5 -4 -8 -15 -8 -24 0 -10 -7 -23 -15 -30
-9 -7 -13 -15 -11 -18 3 -3 -12 -27 -34 -55 -55 -69 -41 -73 21 -7 60 64 98
140 116 227 19 94 -3 229 -50 311 -37 66 -118 146 -168 169 -18 7 -6 -10 40
-55z"/>
</g>
</svg>
