<?xml version="1.0" standalone="no"?>
<!DOCTYPE svg PUBLIC "-//W3C//DTD SVG 20010904//EN"
 "http://www.w3.org/TR/2001/REC-SVG-20010904/DTD/svg10.dtd">
<svg version="1.0" xmlns="http://www.w3.org/2000/svg"
 width="340.000000pt" height="340.000000pt" viewBox="0 0 340.000000 340.000000"
 preserveAspectRatio="xMidYMid meet">
<metadata>
Created by potrace 1.14, written by Peter Selinger 2001-2017
</metadata>
<g transform="translate(0.000000,340.000000) scale(0.100000,-0.100000)"
fill="#000000" stroke="none">
<path d="M2280 3277 c-3 -3 -104 -8 -225 -11 -312 -9 -535 -17 -645 -22 -97
-4 -292 -11 -367 -13 -23 -1 -48 -7 -55 -15 -7 -8 -207 -212 -444 -453 -238
-241 -434 -442 -435 -448 -2 -5 7 -11 21 -12 14 -1 48 -4 75 -7 28 -2 71 -5
98 -5 l47 -1 0 -111 c0 -105 -1 -113 -24 -134 -22 -20 -24 -29 -19 -71 8 -75
8 -191 0 -274 -5 -51 -4 -70 3 -60 5 8 10 11 10 5 0 -5 6 -3 13 5 31 37 50 39
95 8 39 -27 47 -28 42 -3 -1 5 -3 35 -6 66 -2 31 -6 81 -9 110 -3 30 0 74 6
100 15 57 5 116 -20 124 -17 5 -19 17 -18 146 0 79 5 143 10 146 6 3 7 1 3 -5
-4 -7 -3 -12 1 -12 5 0 14 -13 20 -30 10 -27 16 -30 55 -31 37 -1 67 -3 126
-8 6 -1 12 -6 12 -11 0 -6 8 -29 19 -53 10 -23 34 -78 52 -122 53 -127 48
-125 104 -45 26 39 75 100 109 137 61 66 222 193 280 221 17 8 38 21 46 27 46
38 295 126 400 141 55 8 341 9 393 1 20 -3 37 -4 37 -1 0 2 -9 23 -19 47 -11
23 -33 72 -50 109 l-29 67 -89 -4 c-48 -2 -99 -7 -113 -10 -14 -3 -36 -8 -50
-10 -58 -10 -85 -17 -182 -49 -57 -19 -134 -48 -171 -65 -76 -34 -77 -35 -77
-23 0 13 94 75 175 117 175 90 294 128 470 151 41 5 62 23 115 93 68 91 111
147 123 161 7 8 28 35 47 60 19 25 39 48 43 51 5 4 8 12 6 18 -3 7 -7 10 -9 8z"/>
<path d="M1848 2466 c-1 -2 -41 -6 -88 -10 -70 -5 -129 -15 -225 -40 -5 -2
-23 -8 -38 -14 -16 -7 -34 -12 -41 -12 -14 0 -198 -88 -206 -98 -3 -4 -17 -13
-32 -21 -86 -44 -338 -306 -338 -351 0 -5 -4 -10 -9 -10 -5 0 -14 -15 -22 -32
-7 -18 -15 -35 -19 -38 -3 -3 -14 -25 -24 -50 -10 -25 -24 -58 -31 -75 -48
-116 -75 -260 -76 -406 -1 -80 10 -219 17 -231 3 -4 6 -20 8 -35 5 -37 37
-135 47 -147 5 -6 9 -16 9 -23 0 -29 108 -229 145 -269 5 -6 24 -29 40 -50
110 -142 319 -293 485 -349 3 -1 13 -5 22 -9 9 -4 25 -9 35 -11 10 -2 18 -4
18 -5 0 -2 33 -9 65 -15 14 -2 25 -5 25 -6 0 -1 9 -3 20 -5 11 -1 31 -5 45 -8
79 -19 97 -20 416 -16 84 2 158 -1 165 -6 8 -4 64 -9 126 -9 109 -1 113 0 113
20 0 12 -15 47 -34 77 l-34 57 78 50 c77 50 189 153 263 241 92 110 153 222
205 375 64 189 75 440 28 633 -4 12 -8 31 -11 43 -7 32 -44 128 -72 189 -85
181 -282 403 -433 488 -19 10 -51 29 -71 41 -38 22 -156 71 -168 69 -3 -1 -15
2 -26 6 -85 32 -157 47 -260 52 -49 3 -95 7 -102 9 -6 2 -13 2 -15 1z"/>
<path d="M2495 2405 c11 -9 54 -38 95 -64 142 -92 281 -246 387 -426 31 -54
95 -194 97 -215 1 -8 10 -40 19 -70 17 -57 24 -86 35 -155 9 -54 8 -320 -1
-369 -10 -52 -46 -197 -54 -216 -3 -8 -7 -19 -8 -25 0 -5 -7 -23 -13 -40 -15
-37 -23 -58 -24 -65 0 -3 -8 -16 -17 -30 -9 -14 -28 -47 -42 -73 -32 -64 -112
-164 -211 -264 -45 -46 -77 -83 -71 -83 6 0 16 7 23 15 7 8 18 15 26 15 15 0
254 235 254 250 0 5 10 21 23 36 29 33 130 214 131 236 1 3 4 10 9 14 4 4 7
17 7 29 0 12 3 25 8 29 4 4 8 12 8 17 1 5 2 10 4 12 1 1 3 10 6 20 2 9 6 25 8
35 3 9 5 17 6 17 2 0 8 28 16 80 8 53 9 337 1 398 -15 110 -105 354 -140 378
-5 3 -7 8 -6 10 4 6 -74 119 -104 152 -14 15 -23 27 -19 27 6 0 -89 94 -146
143 -17 15 -36 27 -41 27 -5 0 -11 4 -13 9 -5 14 -136 100 -186 122 -26 12
-56 26 -67 31 l-20 9 20 -16z"/>
</g>
</svg>
